<mxfile host="app.diagrams.net" modified="2021-02-28T08:14:29.317Z" agent="5.0 (Windows NT 10.0; Win64; x64) AppleWebKit/537.36 (KHTML, like Gecko) Chrome/88.0.4324.190 Safari/537.36" etag="39R1jMgHVVd1qctGDPG_" version="14.4.3" type="github">
  <diagram name="Page-1" id="13e1069c-82ec-6db2-03f1-153e76fe0fe0">
    <mxGraphModel dx="1039" dy="548" grid="1" gridSize="10" guides="1" tooltips="1" connect="1" arrows="1" fold="1" page="1" pageScale="1" pageWidth="1100" pageHeight="850" background="#ffffff" math="0" shadow="0">
      <root>
        <mxCell id="0" />
        <mxCell id="1" parent="0" />
        <mxCell id="eVLwb8zR_LEF-cPzehQB-1" value="数据开放平台" style="shape=umlLifeline;perimeter=lifelinePerimeter;whiteSpace=wrap;html=1;container=1;collapsible=0;recursiveResize=0;outlineConnect=0;" vertex="1" parent="1">
          <mxGeometry x="370" y="151" width="140" height="490" as="geometry" />
        </mxCell>
        <mxCell id="eVLwb8zR_LEF-cPzehQB-2" value="" style="html=1;points=[];perimeter=orthogonalPerimeter;" vertex="1" parent="eVLwb8zR_LEF-cPzehQB-1">
          <mxGeometry x="65" y="100" width="10" height="50" as="geometry" />
        </mxCell>
        <mxCell id="eVLwb8zR_LEF-cPzehQB-3" value="" style="html=1;points=[];perimeter=orthogonalPerimeter;" vertex="1" parent="eVLwb8zR_LEF-cPzehQB-1">
          <mxGeometry x="65" y="209" width="10" height="130" as="geometry" />
        </mxCell>
        <mxCell id="eVLwb8zR_LEF-cPzehQB-4" value="" style="html=1;points=[];perimeter=orthogonalPerimeter;" vertex="1" parent="eVLwb8zR_LEF-cPzehQB-1">
          <mxGeometry x="65" y="370" width="10" height="100" as="geometry" />
        </mxCell>
        <mxCell id="eVLwb8zR_LEF-cPzehQB-52" value="" style="shape=requiredInterface;html=1;verticalLabelPosition=bottom;" vertex="1" parent="eVLwb8zR_LEF-cPzehQB-1">
          <mxGeometry x="78" y="370" width="67" height="40" as="geometry" />
        </mxCell>
        <mxCell id="eVLwb8zR_LEF-cPzehQB-65" value="权限校验" style="text;align=center;fontStyle=1;verticalAlign=middle;spacingLeft=3;spacingRight=3;strokeColor=none;rotatable=0;points=[[0,0.5],[1,0.5]];portConstraint=eastwest;" vertex="1" parent="eVLwb8zR_LEF-cPzehQB-1">
          <mxGeometry x="105" y="357" width="80" height="26" as="geometry" />
        </mxCell>
        <mxCell id="eVLwb8zR_LEF-cPzehQB-5" value="iTop工具" style="shape=umlLifeline;perimeter=lifelinePerimeter;whiteSpace=wrap;html=1;container=1;collapsible=0;recursiveResize=0;outlineConnect=0;" vertex="1" parent="1">
          <mxGeometry x="573" y="150" width="120" height="490" as="geometry" />
        </mxCell>
        <mxCell id="eVLwb8zR_LEF-cPzehQB-8" value="aiCore" style="shape=umlLifeline;perimeter=lifelinePerimeter;whiteSpace=wrap;html=1;container=1;collapsible=0;recursiveResize=0;outlineConnect=0;" vertex="1" parent="1">
          <mxGeometry x="750" y="151" width="100" height="489" as="geometry" />
        </mxCell>
        <mxCell id="eVLwb8zR_LEF-cPzehQB-10" value="" style="html=1;points=[];perimeter=orthogonalPerimeter;" vertex="1" parent="eVLwb8zR_LEF-cPzehQB-8">
          <mxGeometry x="45" y="419" width="10" height="40" as="geometry" />
        </mxCell>
        <mxCell id="eVLwb8zR_LEF-cPzehQB-11" value="" style="shape=umlLifeline;participant=umlActor;perimeter=lifelinePerimeter;whiteSpace=wrap;html=1;container=1;collapsible=0;recursiveResize=0;verticalAlign=top;spacingTop=36;outlineConnect=0;" vertex="1" parent="1">
          <mxGeometry x="260" y="170" width="20" height="470" as="geometry" />
        </mxCell>
        <mxCell id="eVLwb8zR_LEF-cPzehQB-12" value="" style="html=1;points=[];perimeter=orthogonalPerimeter;" vertex="1" parent="eVLwb8zR_LEF-cPzehQB-11">
          <mxGeometry x="5" y="80" width="10" height="60" as="geometry" />
        </mxCell>
        <mxCell id="eVLwb8zR_LEF-cPzehQB-13" value="" style="html=1;points=[];perimeter=orthogonalPerimeter;" vertex="1" parent="eVLwb8zR_LEF-cPzehQB-11">
          <mxGeometry x="5" y="190" width="10" height="50" as="geometry" />
        </mxCell>
        <mxCell id="eVLwb8zR_LEF-cPzehQB-15" value="" style="html=1;points=[];perimeter=orthogonalPerimeter;" vertex="1" parent="eVLwb8zR_LEF-cPzehQB-11">
          <mxGeometry x="5" y="342" width="10" height="110" as="geometry" />
        </mxCell>
        <mxCell id="eVLwb8zR_LEF-cPzehQB-37" value="" style="endArrow=open;endFill=1;endSize=12;html=1;" edge="1" parent="eVLwb8zR_LEF-cPzehQB-11">
          <mxGeometry width="160" relative="1" as="geometry">
            <mxPoint x="8" y="82" as="sourcePoint" />
            <mxPoint x="178" y="82" as="targetPoint" />
          </mxGeometry>
        </mxCell>
        <mxCell id="eVLwb8zR_LEF-cPzehQB-38" value="数据门户首页" style="edgeLabel;html=1;align=center;verticalAlign=middle;resizable=0;points=[];" vertex="1" connectable="0" parent="eVLwb8zR_LEF-cPzehQB-37">
          <mxGeometry x="-0.1129" y="-3" relative="1" as="geometry">
            <mxPoint as="offset" />
          </mxGeometry>
        </mxCell>
        <mxCell id="eVLwb8zR_LEF-cPzehQB-16" value="普通用户" style="text;align=center;fontStyle=1;verticalAlign=middle;spacingLeft=3;spacingRight=3;strokeColor=none;rotatable=0;points=[[0,0.5],[1,0.5]];portConstraint=eastwest;" vertex="1" parent="1">
          <mxGeometry x="228" y="144" width="80" height="26" as="geometry" />
        </mxCell>
        <mxCell id="eVLwb8zR_LEF-cPzehQB-20" value="" style="shape=umlLifeline;participant=umlActor;perimeter=lifelinePerimeter;whiteSpace=wrap;html=1;container=1;collapsible=0;recursiveResize=0;verticalAlign=top;spacingTop=36;outlineConnect=0;" vertex="1" parent="1">
          <mxGeometry x="150" y="170" width="20" height="470" as="geometry" />
        </mxCell>
        <mxCell id="eVLwb8zR_LEF-cPzehQB-21" value="" style="html=1;points=[];perimeter=orthogonalPerimeter;" vertex="1" parent="eVLwb8zR_LEF-cPzehQB-20">
          <mxGeometry x="6" y="260" width="10" height="60" as="geometry" />
        </mxCell>
        <mxCell id="eVLwb8zR_LEF-cPzehQB-22" value="数据审核员" style="text;align=center;fontStyle=1;verticalAlign=middle;spacingLeft=3;spacingRight=3;strokeColor=none;rotatable=0;points=[[0,0.5],[1,0.5]];portConstraint=eastwest;" vertex="1" parent="1">
          <mxGeometry x="120" y="141" width="80" height="26" as="geometry" />
        </mxCell>
        <mxCell id="eVLwb8zR_LEF-cPzehQB-25" value="审核成功" style="html=1;verticalAlign=bottom;endArrow=open;dashed=1;endSize=8;" edge="1" parent="1">
          <mxGeometry x="0.0416" y="7" relative="1" as="geometry">
            <mxPoint x="435.5" y="487" as="targetPoint" />
            <mxPoint x="170" y="487" as="sourcePoint" />
            <mxPoint as="offset" />
          </mxGeometry>
        </mxCell>
        <mxCell id="eVLwb8zR_LEF-cPzehQB-34" value="返回数据" style="html=1;verticalAlign=bottom;endArrow=open;dashed=1;endSize=8;exitX=0;exitY=0.95;" edge="1" parent="1">
          <mxGeometry relative="1" as="geometry">
            <mxPoint x="277" y="616" as="targetPoint" />
            <mxPoint x="432" y="616" as="sourcePoint" />
          </mxGeometry>
        </mxCell>
        <mxCell id="eVLwb8zR_LEF-cPzehQB-35" value="返回数据" style="html=1;verticalAlign=bottom;endArrow=open;dashed=1;endSize=8;" edge="1" parent="1">
          <mxGeometry x="0.0682" relative="1" as="geometry">
            <mxPoint x="450" y="610" as="targetPoint" />
            <mxPoint x="790" y="610" as="sourcePoint" />
            <mxPoint as="offset" />
          </mxGeometry>
        </mxCell>
        <mxCell id="eVLwb8zR_LEF-cPzehQB-36" value="查询数据" style="html=1;verticalAlign=bottom;endArrow=block;" edge="1" parent="1">
          <mxGeometry x="-0.0474" y="5" relative="1" as="geometry">
            <mxPoint x="447" y="575" as="sourcePoint" />
            <mxPoint x="792" y="575" as="targetPoint" />
            <Array as="points" />
            <mxPoint as="offset" />
          </mxGeometry>
        </mxCell>
        <mxCell id="eVLwb8zR_LEF-cPzehQB-42" value="" style="endArrow=open;endFill=1;endSize=12;html=1;" edge="1" parent="1">
          <mxGeometry width="160" relative="1" as="geometry">
            <mxPoint x="269" y="361" as="sourcePoint" />
            <mxPoint x="439" y="361" as="targetPoint" />
          </mxGeometry>
        </mxCell>
        <mxCell id="eVLwb8zR_LEF-cPzehQB-43" value="申请数据权限" style="edgeLabel;html=1;align=center;verticalAlign=middle;resizable=0;points=[];" vertex="1" connectable="0" parent="eVLwb8zR_LEF-cPzehQB-42">
          <mxGeometry x="-0.1129" y="-3" relative="1" as="geometry">
            <mxPoint as="offset" />
          </mxGeometry>
        </mxCell>
        <mxCell id="eVLwb8zR_LEF-cPzehQB-48" value="" style="endArrow=open;endFill=1;endSize=12;html=1;" edge="1" parent="1">
          <mxGeometry width="160" relative="1" as="geometry">
            <mxPoint x="438" y="434" as="sourcePoint" />
            <mxPoint x="168" y="434" as="targetPoint" />
            <Array as="points">
              <mxPoint x="228" y="434" />
            </Array>
          </mxGeometry>
        </mxCell>
        <mxCell id="eVLwb8zR_LEF-cPzehQB-49" value="申请审核" style="edgeLabel;html=1;align=center;verticalAlign=middle;resizable=0;points=[];" vertex="1" connectable="0" parent="eVLwb8zR_LEF-cPzehQB-48">
          <mxGeometry x="-0.0919" y="-1" relative="1" as="geometry">
            <mxPoint as="offset" />
          </mxGeometry>
        </mxCell>
        <mxCell id="eVLwb8zR_LEF-cPzehQB-50" value="" style="endArrow=open;endFill=1;endSize=12;html=1;" edge="1" parent="1">
          <mxGeometry width="160" relative="1" as="geometry">
            <mxPoint x="277" y="523" as="sourcePoint" />
            <mxPoint x="433" y="523" as="targetPoint" />
          </mxGeometry>
        </mxCell>
        <mxCell id="eVLwb8zR_LEF-cPzehQB-51" value="调用数据" style="edgeLabel;html=1;align=center;verticalAlign=middle;resizable=0;points=[];" vertex="1" connectable="0" parent="eVLwb8zR_LEF-cPzehQB-50">
          <mxGeometry x="-0.1129" y="-3" relative="1" as="geometry">
            <mxPoint as="offset" />
          </mxGeometry>
        </mxCell>
        <mxCell id="eVLwb8zR_LEF-cPzehQB-70" value="返回数据" style="endArrow=open;endSize=12;dashed=1;html=1;" edge="1" parent="1">
          <mxGeometry width="160" relative="1" as="geometry">
            <mxPoint x="430" y="300" as="sourcePoint" />
            <mxPoint x="277" y="300" as="targetPoint" />
            <Array as="points">
              <mxPoint x="347" y="300" />
            </Array>
          </mxGeometry>
        </mxCell>
        <mxCell id="eVLwb8zR_LEF-cPzehQB-71" value="申请提交成功" style="endArrow=open;endSize=12;dashed=1;html=1;" edge="1" parent="1">
          <mxGeometry width="160" relative="1" as="geometry">
            <mxPoint x="433" y="404.5" as="sourcePoint" />
            <mxPoint x="280" y="404.5" as="targetPoint" />
            <Array as="points">
              <mxPoint x="350" y="404.5" />
            </Array>
          </mxGeometry>
        </mxCell>
      </root>
    </mxGraphModel>
  </diagram>
</mxfile>
